<svg display="none" width="0" height="0" version="1.1" xmlns="http://www.w3.org/2000/svg" xmlns:xlink="http://www.w3.org/1999/xlink">
    <defs>
        <symbol id="messages" viewBox="0 0 24 24">
            <path d="M13.19 6H6.79C6.53 6 6.28 6.01 6.04 6.04C3.35 6.27 2 7.86 2 10.79V14.79C2 18.79 3.6 19.58 6.79 19.58H7.19C7.41 19.58 7.7 19.73 7.83 19.9L9.03 21.5C9.56 22.21 10.42 22.21 10.95 21.5L12.15 19.9C12.3 19.7 12.54 19.58 12.79 19.58H13.19C16.12 19.58 17.71 18.24 17.94 15.54C17.97 15.3 17.98 15.05 17.98 14.79V10.79C17.98 7.6 16.38 6 13.19 6ZM6.5 14C5.94 14 5.5 13.55 5.5 13C5.5 12.45 5.95 12 6.5 12C7.05 12 7.5 12.45 7.5 13C7.5 13.55 7.05 14 6.5 14ZM9.99 14C9.43 14 8.99 13.55 8.99 13C8.99 12.45 9.44 12 9.99 12C10.54 12 10.99 12.45 10.99 13C10.99 13.55 10.55 14 9.99 14ZM13.49 14C12.93 14 12.49 13.55 12.49 13C12.49 12.45 12.94 12 13.49 12C14.04 12 14.49 12.45 14.49 13C14.49 13.55 14.04 14 13.49 14Z" />
            <path d="M21.98 6.79V10.79C21.98 12.79 21.36 14.15 20.12 14.9C19.82 15.08 19.47 14.84 19.47 14.49L19.48 10.79C19.48 6.79 17.19 4.5 13.19 4.5L7.1 4.51C6.75 4.51 6.51 4.16 6.69 3.86C7.44 2.62 8.8 2 10.79 2H17.19C20.38 2 21.98 3.6 21.98 6.79Z" />
        </symbol>
        <symbol id="profile-2user" viewBox="0 0 24 24">
            <path d="M9 2C6.38 2 4.25 4.13 4.25 6.75C4.25 9.32 6.26 11.4 8.88 11.49C8.96 11.48 9.04 11.48 9.1 11.49C9.12 11.49 9.13 11.49 9.15 11.49C9.16 11.49 9.16 11.49 9.17 11.49C11.73 11.4 13.74 9.32 13.75 6.75C13.75 4.13 11.62 2 9 2Z" />
            <path d="M14.08 14.15C11.29 12.29 6.73999 12.29 3.92999 14.15C2.65999 15 1.95999 16.15 1.95999 17.38C1.95999 18.61 2.65999 19.75 3.91999 20.59C5.31999 21.53 7.15999 22 8.99999 22C10.84 22 12.68 21.53 14.08 20.59C15.34 19.74 16.04 18.6 16.04 17.36C16.03 16.13 15.34 14.99 14.08 14.15Z" />
            <path d="M19.99 7.33998C20.15 9.27998 18.77 10.98 16.86 11.21C16.85 11.21 16.85 11.21 16.84 11.21H16.81C16.75 11.21 16.69 11.21 16.64 11.23C15.67 11.28 14.78 10.97 14.11 10.4C15.14 9.47998 15.73 8.09998 15.61 6.59998C15.54 5.78998 15.26 5.04998 14.84 4.41998C15.22 4.22998 15.66 4.10998 16.11 4.06998C18.07 3.89998 19.82 5.35998 19.99 7.33998Z" />
            <path d="M21.99 16.59C21.91 17.56 21.29 18.4 20.25 18.97C19.25 19.52 17.99 19.78 16.74 19.75C17.46 19.1 17.88 18.29 17.96 17.43C18.06 16.19 17.47 15 16.29 14.05C15.62 13.52 14.84 13.1 13.99 12.79C16.2 12.15 18.98 12.58 20.69 13.96C21.61 14.7 22.08 15.63 21.99 16.59Z" />
        </symbol>
        <symbol id="user" viewBox="0 0 24 24">
            <path d="M12 12C14.7614 12 17 9.76142 17 7C17 4.23858 14.7614 2 12 2C9.23858 2 7 4.23858 7 7C7 9.76142 9.23858 12 12 12Z" />
            <path d="M12 14.5C6.99 14.5 2.91 17.86 2.91 22C2.91 22.28 3.13 22.5 3.41 22.5H20.59C20.87 22.5 21.09 22.28 21.09 22C21.09 17.86 17.01 14.5 12 14.5Z" />
        </symbol>
        <symbol id="arrow-down" viewBox="0 0 24 24" fill="none">
            <path d="M19.92 8.94995L13.4 15.47C12.63 16.24 11.37 16.24 10.6 15.47L4.08 8.94995" stroke="#6F7585" stroke-width="1.5" stroke-miterlimit="10" stroke-linecap="round" stroke-linejoin="round"/>
        </symbol>
        <symbol id="arrow-up" viewBox="0 0 24 24" fill="none">
            <path d="M19.92 15.05L13.4 8.53001C12.63 7.76001 11.37 7.76001 10.6 8.53001L4.08 15.05" stroke="#6F7585" stroke-width="1.5" stroke-miterlimit="10" stroke-linecap="round" stroke-linejoin="round"/>
        </symbol>
        <symbol id="arrow-left" viewBox="0 0 24 24" fill="none">
            <path d="M9.57 6.43018L3.5 12.5002L9.57 18.5702" stroke="white" stroke-width="1.5" stroke-miterlimit="10" stroke-linecap="round" stroke-linejoin="round"/>
            <path d="M20.4999 12.5H3.66992" stroke="white" stroke-width="1.5" stroke-miterlimit="10" stroke-linecap="round" stroke-linejoin="round"/>
        </symbol>
        <symbol id="logout" viewBox="0 0 24 24" fill="none">
            <path d="M8.89999 7.55999C9.20999 3.95999 11.06 2.48999 15.11 2.48999H15.24C19.71 2.48999 21.5 4.27999 21.5 8.74999V15.27C21.5 19.74 19.71 21.53 15.24 21.53H15.11C11.09 21.53 9.23999 20.08 8.90999 16.54" stroke="#6F7585" stroke-width="1.5" stroke-linecap="round" stroke-linejoin="round"/>
            <path d="M15 12H3.62" stroke="#6F7585" stroke-width="1.5" stroke-linecap="round" stroke-linejoin="round"/>
            <path d="M5.85 8.65002L2.5 12L5.85 15.35" stroke="#6F7585" stroke-width="1.5" stroke-linecap="round" stroke-linejoin="round"/>
        </symbol>
        <symbol id="trash" viewBox="0 0 24 24">
            <path fill-rule="evenodd" clip-rule="evenodd" d="M4.96573 5.03367C6.97028 4.83122 8.97507 4.72998 10.98 4.72998C14.3454 4.72998 17.7201 4.90127 21.074 5.23364C21.4862 5.27448 21.7872 5.64175 21.7463 6.05394C21.7055 6.46614 21.3382 6.76717 20.926 6.72632C17.6199 6.39869 14.2946 6.22998 10.98 6.22998C9.0253 6.22998 7.07046 6.3287 5.11538 6.52618L5.11318 6.5264L3.07318 6.7264C2.66094 6.76682 2.29399 6.4654 2.25358 6.05316C2.21316 5.64092 2.51459 5.27397 2.92682 5.23356L4.96573 5.03367Z" />
            <path fill-rule="evenodd" clip-rule="evenodd" d="M9.45959 3.78456L9.23965 5.09421C9.17104 5.50271 8.78428 5.77824 8.37579 5.70964C7.9673 5.64104 7.69176 5.25428 7.76036 4.84578L7.98036 3.53579C7.9842 3.51297 7.98816 3.48908 7.99217 3.46487C8.06103 3.04899 8.16204 2.43887 8.56874 1.97769C9.0428 1.44012 9.7661 1.25 10.69 1.25H13.31C14.2451 1.25 14.9677 1.4554 15.439 1.99845C15.8462 2.46776 15.9447 3.08006 16.0105 3.48891C16.0137 3.5088 16.0168 3.52822 16.0199 3.54711L16.2395 4.84486C16.3086 5.25326 16.0336 5.64037 15.6251 5.70949C15.2167 5.7786 14.8296 5.50355 14.7605 5.09514L14.5398 3.79069C14.4561 3.27767 14.4032 3.09352 14.306 2.98155C14.2523 2.9196 14.0649 2.75 13.31 2.75H10.69C9.92391 2.75 9.74221 2.91488 9.69377 2.96981C9.60165 3.07427 9.54967 3.24976 9.45959 3.78456Z" />
            <path fill-rule="evenodd" clip-rule="evenodd" d="M18.8983 8.3916C19.3117 8.41828 19.6251 8.775 19.5984 9.18835L18.9482 19.2625L18.9468 19.2815C18.9205 19.6577 18.8915 20.0714 18.814 20.4564C18.7336 20.8556 18.5919 21.2768 18.3048 21.6506C17.7036 22.4333 16.6806 22.75 15.21 22.75H8.79C7.31943 22.75 6.29637 22.4333 5.6952 21.6506C5.4081 21.2768 5.2664 20.8556 5.18601 20.4564C5.10848 20.0714 5.07951 19.6577 5.05316 19.2815L5.05154 19.2584L4.40156 9.18835C4.37487 8.775 4.68833 8.41828 5.10169 8.3916C5.51504 8.36492 5.87176 8.67838 5.89844 9.09173L6.54816 19.1576C6.54821 19.1583 6.54826 19.159 6.54831 19.1597C6.57653 19.5624 6.60042 19.8818 6.65649 20.1602C6.71109 20.4314 6.7869 20.6095 6.8848 20.7369C7.05362 20.9567 7.47056 21.25 8.79 21.25H15.21C16.5294 21.25 16.9464 20.9567 17.1152 20.7369C17.2131 20.6095 17.2889 20.4314 17.3435 20.1602C17.3996 19.8818 17.4235 19.5624 17.4517 19.1597C17.4517 19.159 17.4518 19.1583 17.4518 19.1576L18.1016 9.09173C18.1282 8.67838 18.485 8.36492 18.8983 8.3916Z" />
            <path fill-rule="evenodd" clip-rule="evenodd" d="M9.58 16.5C9.58 16.0858 9.91579 15.75 10.33 15.75H13.66C14.0742 15.75 14.41 16.0858 14.41 16.5C14.41 16.9142 14.0742 17.25 13.66 17.25H10.33C9.91579 17.25 9.58 16.9142 9.58 16.5Z" />
            <path fill-rule="evenodd" clip-rule="evenodd" d="M8.75 12.5C8.75 12.0858 9.08579 11.75 9.5 11.75H14.5C14.9142 11.75 15.25 12.0858 15.25 12.5C15.25 12.9142 14.9142 13.25 14.5 13.25H9.5C9.08579 13.25 8.75 12.9142 8.75 12.5Z" />
        </symbol>
        <symbol id="edit" viewBox="0 0 24 24">
            <path fill-rule="evenodd" clip-rule="evenodd" d="M15.5174 1.43726C16.6841 1.28806 17.8645 1.76518 19.0639 2.89373L19.0653 2.89503C20.2688 4.03312 20.8166 5.18762 20.7344 6.3635C20.655 7.49975 19.9963 8.46146 19.2452 9.25501M19.2452 9.25501L11.0392 17.9407C10.8079 18.1926 10.4964 18.406 10.2011 18.5639C9.90203 18.7238 9.55607 18.8606 9.23128 18.9184L9.22628 18.9193L6.00743 19.469C5.22687 19.6036 4.47837 19.4086 3.94516 18.9029C3.41271 18.398 3.17742 17.6616 3.26459 16.8771L3.26484 16.8749L3.63645 13.6208C3.67961 13.2971 3.79982 12.9468 3.94153 12.643C4.08273 12.3402 4.27538 12.0191 4.50336 11.7764L4.50483 11.7749L12.7148 3.08489C13.4664 2.29102 14.3899 1.58143 15.5174 1.43726M13.8047 4.11556C13.8045 4.11569 13.8048 4.11542 13.8047 4.11556L5.59664 12.8035C5.59647 12.8036 5.59681 12.8033 5.59664 12.8035C5.51466 12.8909 5.40206 13.0602 5.30097 13.2769C5.20171 13.4898 5.14209 13.6867 5.12422 13.8133L4.75541 17.0428C4.75537 17.0431 4.75534 17.0435 4.7553 17.0438C4.71279 17.4287 4.83242 17.6771 4.97734 17.8145C5.12163 17.9513 5.37313 18.0563 5.75257 17.9909L5.75372 17.9907L8.97083 17.4412C9.09611 17.4185 9.28912 17.3505 9.49388 17.241C9.70146 17.1301 9.85762 17.0104 9.93578 16.9246L9.94474 16.9148L18.1548 8.22489C18.8235 7.51855 19.195 6.87489 19.2381 6.2589C19.2784 5.68244 19.0414 4.93718 18.0355 3.98564C17.0352 3.04465 16.2808 2.85185 15.7076 2.92514C15.0952 3.00345 14.473 3.40968 13.8047 4.11556Z" />
            <path fill-rule="evenodd" clip-rule="evenodd" d="M11.7745 4.30885C12.1838 4.24509 12.5673 4.52518 12.6311 4.93446C13.0082 7.35508 14.9727 9.20768 17.4152 9.45369C17.8273 9.4952 18.1277 9.86294 18.0862 10.2751C18.0447 10.6872 17.677 10.9876 17.2648 10.9461C14.1473 10.6321 11.6318 8.26475 11.1489 5.16537C11.0852 4.75609 11.3653 4.37262 11.7745 4.30885Z" />
            <path fill-rule="evenodd" clip-rule="evenodd" d="M2.25 22C2.25 21.5858 2.58579 21.25 3 21.25H21C21.4142 21.25 21.75 21.5858 21.75 22C21.75 22.4142 21.4142 22.75 21 22.75H3C2.58579 22.75 2.25 22.4142 2.25 22Z" />
        </symbol>
        <symbol id="publish" viewBox="0 0 24 24">
            <path fill-rule="evenodd" clip-rule="evenodd" d="M4.15533 4.15533C3.2398 5.07086 2.75 6.57397 2.75 9V15C2.75 17.426 3.2398 18.9291 4.15533 19.8447C5.07086 20.7602 6.57397 21.25 9 21.25H15C17.426 21.25 18.9291 20.7602 19.8447 19.8447C20.7602 18.9291 21.25 17.426 21.25 15V10C21.25 9.58579 21.5858 9.25 22 9.25C22.4142 9.25 22.75 9.58579 22.75 10V15C22.75 17.574 22.2398 19.5709 20.9053 20.9053C19.5709 22.2398 17.574 22.75 15 22.75H9C6.42603 22.75 4.42914 22.2398 3.09467 20.9053C1.7602 19.5709 1.25 17.574 1.25 15V9C1.25 6.42603 1.7602 4.42914 3.09467 3.09467C4.42914 1.7602 6.42603 1.25 9 1.25H14C14.4142 1.25 14.75 1.58579 14.75 2C14.75 2.41421 14.4142 2.75 14 2.75H9C6.57397 2.75 5.07086 3.2398 4.15533 4.15533Z" />
            <path fill-rule="evenodd" clip-rule="evenodd" d="M13.713 1.30711C13.9932 1.19103 14.3158 1.25519 14.5303 1.46969L22.5303 9.46969C22.7448 9.68419 22.809 10.0068 22.6929 10.287C22.5768 10.5673 22.3033 10.75 22 10.75H18C16.4585 10.75 15.1921 10.5028 14.3447 9.65535C13.4972 8.80793 13.25 7.54157 13.25 6.00002V2.00002C13.25 1.69668 13.4327 1.4232 13.713 1.30711ZM14.75 3.81068V6.00002C14.75 7.45847 15.0028 8.19211 15.4053 8.59469C15.8079 8.99727 16.5415 9.25002 18 9.25002H20.1893L14.75 3.81068Z" />
            <path fill-rule="evenodd" clip-rule="evenodd" d="M13.0303 12.4697C13.3232 12.7626 13.3232 13.2374 13.0303 13.5303L9.03033 17.5303C8.88968 17.671 8.69891 17.75 8.5 17.75C8.30109 17.75 8.11032 17.671 7.96967 17.5303L6.46967 16.0303C6.17678 15.7374 6.17678 15.2626 6.46967 14.9697C6.76256 14.6768 7.23744 14.6768 7.53033 14.9697L8.5 15.9393L11.9697 12.4697C12.2626 12.1768 12.7374 12.1768 13.0303 12.4697Z" />
        </symbol>
        <symbol id="unpublish" viewBox="0 0 24 24">
            <path fill-rule="evenodd" clip-rule="evenodd" d="M4.15533 4.15533C3.2398 5.07086 2.75 6.57397 2.75 9V15C2.75 17.426 3.2398 18.9291 4.15533 19.8447C5.07086 20.7602 6.57397 21.25 9 21.25H15C17.426 21.25 18.9291 20.7602 19.8447 19.8447C20.7602 18.9291 21.25 17.426 21.25 15V10C21.25 9.58579 21.5858 9.25 22 9.25C22.4142 9.25 22.75 9.58579 22.75 10V15C22.75 17.574 22.2398 19.5709 20.9053 20.9053C19.5709 22.2398 17.574 22.75 15 22.75H9C6.42603 22.75 4.42914 22.2398 3.09467 20.9053C1.7602 19.5709 1.25 17.574 1.25 15V9C1.25 6.42603 1.7602 4.42914 3.09467 3.09467C4.42914 1.7602 6.42603 1.25 9 1.25H14C14.4142 1.25 14.75 1.58579 14.75 2C14.75 2.41421 14.4142 2.75 14 2.75H9C6.57397 2.75 5.07086 3.2398 4.15533 4.15533Z" />
            <path fill-rule="evenodd" clip-rule="evenodd" d="M13.713 1.30711C13.9932 1.19103 14.3158 1.25519 14.5303 1.46969L22.5303 9.46969C22.7448 9.68419 22.809 10.0068 22.6929 10.287C22.5768 10.5673 22.3033 10.75 22 10.75H18C16.4585 10.75 15.1921 10.5028 14.3447 9.65535C13.4972 8.80793 13.25 7.54157 13.25 6.00002V2.00002C13.25 1.69668 13.4327 1.4232 13.713 1.30711ZM14.75 3.81068V6.00002C14.75 7.45847 15.0028 8.19211 15.4053 8.59469C15.8079 8.99727 16.5415 9.25002 18 9.25002H20.1893L14.75 3.81068Z" />
            <path fill-rule="evenodd" clip-rule="evenodd" d="M6.50965 12.4697C6.80254 12.1768 7.27741 12.1768 7.57031 12.4697L11.5303 16.4297C11.8232 16.7226 11.8232 17.1974 11.5303 17.4903C11.2374 17.7832 10.7625 17.7832 10.4696 17.4903L6.50965 13.5303C6.21675 13.2374 6.21675 12.7626 6.50965 12.4697Z" />
            <path fill-rule="evenodd" clip-rule="evenodd" d="M11.4903 12.5097C11.7832 12.8026 11.7832 13.2775 11.4903 13.5704L7.53033 17.5304C7.23744 17.8233 6.76256 17.8233 6.46967 17.5304C6.17678 17.2375 6.17678 16.7626 6.46967 16.4697L10.4297 12.5097C10.7226 12.2168 11.1974 12.2168 11.4903 12.5097Z" />
        </symbol>
        <symbol id="cancel" viewBox="0 0 24 24">
            <path d="M13.41 11.9999L17.71 7.70994C17.8983 7.52164 18.0041 7.26624 18.0041 6.99994C18.0041 6.73364 17.8983 6.47825 17.71 6.28994C17.5217 6.10164 17.2663 5.99585 17 5.99585C16.7337 5.99585 16.4783 6.10164 16.29 6.28994L12 10.5899L7.71 6.28994C7.5217 6.10164 7.2663 5.99585 7 5.99585C6.7337 5.99585 6.4783 6.10164 6.29 6.28994C6.1017 6.47825 5.99591 6.73364 5.99591 6.99994C5.99591 7.26624 6.1017 7.52164 6.29 7.70994L10.59 11.9999L6.29 16.2899C6.19627 16.3829 6.12188 16.4935 6.07111 16.6154C6.02034 16.7372 5.9942 16.8679 5.9942 16.9999C5.9942 17.132 6.02034 17.2627 6.07111 17.3845C6.12188 17.5064 6.19627 17.617 6.29 17.7099C6.38296 17.8037 6.49356 17.8781 6.61542 17.9288C6.73728 17.9796 6.86799 18.0057 7 18.0057C7.13201 18.0057 7.26272 17.9796 7.38458 17.9288C7.50644 17.8781 7.61704 17.8037 7.71 17.7099L12 13.4099L16.29 17.7099C16.383 17.8037 16.4936 17.8781 16.6154 17.9288C16.7373 17.9796 16.868 18.0057 17 18.0057C17.132 18.0057 17.2627 17.9796 17.3846 17.9288C17.5064 17.8781 17.617 17.8037 17.71 17.7099C17.8037 17.617 17.8781 17.5064 17.9289 17.3845C17.9797 17.2627 18.0058 17.132 18.0058 16.9999C18.0058 16.8679 17.9797 16.7372 17.9289 16.6154C17.8781 16.4935 17.8037 16.3829 17.71 16.2899L13.41 11.9999Z" />
        </symbol>

        <symbol id="info" viewBox="0 0 14 14">
            <path d="M6.99992 13.6667C10.6666 13.6667 13.6666 10.6667 13.6666 7.00004C13.6666 3.33337 10.6666 0.333374 6.99992 0.333374C3.33325 0.333374 0.333252 3.33337 0.333252 7.00004C0.333252 10.6667 3.33325 13.6667 6.99992 13.6667Z"/>
            <path fill-rule="evenodd" clip-rule="evenodd" d="M7 3.83337C7.27614 3.83337 7.5 4.05723 7.5 4.33337V7.66671C7.5 7.94285 7.27614 8.16671 7 8.16671C6.72386 8.16671 6.5 7.94285 6.5 7.66671V4.33337C6.5 4.05723 6.72386 3.83337 7 3.83337Z" stroke="var(--tertiary_dark)"/>
            <path fill-rule="evenodd" clip-rule="evenodd" d="M6.32959 9.66667C6.32959 9.29848 6.62807 9 6.99626 9H7.00224C7.37043 9 7.66891 9.29848 7.66891 9.66667C7.66891 10.0349 7.37043 10.3333 7.00224 10.3333H6.99626C6.62807 10.3333 6.32959 10.0349 6.32959 9.66667Z" stroke="var(--tertiary_dark)"/>
        </symbol>
        <symbol id="mobile-menu" viewBox="0 0 512 512">
            <g transform="translate(0.000000,512.000000) scale(0.100000,-0.100000)" fill-opacity="0.6" stroke="none">
                <path d="M204 4148 c-40 -19 -44 -48 -44 -308 0 -264 4 -289 47 -309 34 -16 4672 -16 4706 0 43 20 47 45 47 309 0 264 -4 289 -47 309 -33 15 -4678 14 -4709 -1z"/>
                <path d="M204 2868 c-40 -19 -44 -48 -44 -308 0 -264 4 -289 47 -309 34 -16 4672 -16 4706 0 43 20 47 45 47 309 0 264 -4 289 -47 309 -33 15 -4678 14 -4709 -1z"/>
                <path d="M204 1588 c-40 -19 -44 -48 -44 -308 0 -264 4 -289 47 -309 34 -16 4672 -16 4706 0 43 20 47 45 47 309 0 264 -4 289 -47 309 -33 15 -4678 14 -4709 -1z"/>
            </g>
        </symbol>
        <symbol id="success" viewBox="0 0 24 24">
            <path d="M20,12A8,8 0 0,1 12,20A8,8 0 0,1 4,12A8,8 0 0,1 12,4C12.76,4 13.5,4.11 14.2, 4.31L15.77,2.74C14.61,2.26 13.34,2 12,2A10,10 0 0,0 2,12A10,10 0 0,0 12,22A10,10 0 0, 0 22,12M7.91,10.08L6.5,11.5L11,16L21,6L19.59,4.58L11,13.17L7.91,10.08Z"/>
        </symbol>
        <symbol id="info" viewBox="0 0 14 14">
            <path d="M6.99992 13.6667C10.6666 13.6667 13.6666 10.6667 13.6666 7.00004C13.6666 3.33337 10.6666 0.333374 6.99992 0.333374C3.33325 0.333374 0.333252 3.33337 0.333252 7.00004C0.333252 10.6667 3.33325 13.6667 6.99992 13.6667Z"/>
            <path fill-rule="evenodd" clip-rule="evenodd" d="M7 3.83337C7.27614 3.83337 7.5 4.05723 7.5 4.33337V7.66671C7.5 7.94285 7.27614 8.16671 7 8.16671C6.72386 8.16671 6.5 7.94285 6.5 7.66671V4.33337C6.5 4.05723 6.72386 3.83337 7 3.83337Z" stroke="var(--tertiary_dark)"/>
            <path fill-rule="evenodd" clip-rule="evenodd" d="M6.32959 9.66667C6.32959 9.29848 6.62807 9 6.99626 9H7.00224C7.37043 9 7.66891 9.29848 7.66891 9.66667C7.66891 10.0349 7.37043 10.3333 7.00224 10.3333H6.99626C6.62807 10.3333 6.32959 10.0349 6.32959 9.66667Z" stroke="var(--tertiary_dark)"/>
        </symbol>
         <symbol id="error" viewBox="0 0 14 14">
            <path d="M6.99992 13.6667C10.6666 13.6667 13.6666 10.6667 13.6666 7.00004C13.6666 3.33337 10.6666 0.333374 6.99992 0.333374C3.33325 0.333374 0.333252 3.33337 0.333252 7.00004C0.333252 10.6667 3.33325 13.6667 6.99992 13.6667Z" />
            <path fill-rule="evenodd" clip-rule="evenodd" d="M7 3.83337C7.27614 3.83337 7.5 4.05723 7.5 4.33337V7.66671C7.5 7.94285 7.27614 8.16671 7 8.16671C6.72386 8.16671 6.5 7.94285 6.5 7.66671V4.33337C6.5 4.05723 6.72386 3.83337 7 3.83337Z" stroke='var(--white)'/>
            <path fill-rule="evenodd" clip-rule="evenodd" d="M6.32959 9.66667C6.32959 9.29848 6.62807 9 6.99626 9H7.00224C7.37043 9 7.66891 9.29848 7.66891 9.66667C7.66891 10.0349 7.37043 10.3333 7.00224 10.3333H6.99626C6.62807 10.3333 6.32959 10.0349 6.32959 9.66667Z" stroke='var(--white)'/>
        </symbol>
        <symbol id="eye-slash" viewBox="0 0 24 24">
            <path fill-rule="evenodd" clip-rule="evenodd" d="M12 9.16992C10.4342 9.16992 9.16998 10.4341 9.16998 11.9999C9.16998 12.5103 9.30391 12.9864 9.54027 13.399L13.399 9.54021C12.9865 9.30385 12.5104 9.16992 12 9.16992ZM7.66998 11.9999C7.66998 9.60571 9.60577 7.66992 12 7.66992C13.1978 7.66992 14.2761 8.15536 15.0603 8.93959C15.3532 9.23249 15.3532 9.70736 15.0603 10.0003L10.0003 15.0603C9.70742 15.3531 9.23255 15.3531 8.93965 15.0603C8.15542 14.276 7.66998 13.1977 7.66998 11.9999Z"/>
            <path fill-rule="evenodd" clip-rule="evenodd" d="M2.25752 9.00695C4.64844 5.24858 8.15205 2.97998 12 2.97998C14.2497 2.97998 16.4055 3.76359 18.2717 5.17121C18.6024 5.42065 18.6682 5.89093 18.4188 6.22162C18.1694 6.55231 17.6991 6.61818 17.3684 6.36875C15.7346 5.13637 13.8904 4.47998 12 4.47998C8.78817 4.47998 5.71192 6.37118 3.52285 9.81252L3.52222 9.81351C3.16763 10.369 2.96503 11.1642 2.96503 12.005C2.96503 12.8457 3.16763 13.6409 3.52222 14.1965L3.52256 14.197C4.27633 15.3801 5.14914 16.393 6.08906 17.2013C6.40311 17.4714 6.43875 17.945 6.16867 18.259C5.89858 18.5731 5.42505 18.6087 5.111 18.3386C4.05092 17.427 3.08372 16.2998 2.25749 15.003C1.71232 14.1486 1.46503 13.054 1.46503 12.005C1.46503 10.9559 1.71233 9.86136 2.25752 9.00695Z"/>
            <path fill-rule="evenodd" clip-rule="evenodd" d="M19.5799 7.34555C19.9027 7.08594 20.3748 7.13713 20.6344 7.45989C21.0183 7.93716 21.3954 8.45001 21.7432 8.99809C22.2879 9.85233 22.535 10.9464 22.535 11.995C22.535 13.044 22.2877 14.1386 21.7425 14.993C19.3516 18.7514 15.848 21.02 12 21.02C10.6635 21.02 9.35482 20.7373 8.12895 20.2212C7.7472 20.0604 7.56803 19.6207 7.72877 19.2389C7.88951 18.8572 8.32928 18.678 8.71104 18.8387C9.76517 19.2826 10.8765 19.52 12 19.52C15.2118 19.52 18.2881 17.6288 20.4772 14.1874L20.4778 14.1864C20.8324 13.6309 21.035 12.8357 21.035 11.995C21.035 11.1542 20.8324 10.359 20.4778 9.80348L20.4767 9.80183C20.1646 9.30991 19.8217 8.84276 19.4656 8.40003C19.206 8.07727 19.2572 7.60516 19.5799 7.34555Z"/>
            <path fill-rule="evenodd" clip-rule="evenodd" d="M15.646 11.9625C16.0534 12.0376 16.3227 12.4287 16.2476 12.8361C15.9312 14.5519 14.5419 15.9413 12.826 16.2576C12.4187 16.3328 12.0276 16.0634 11.9524 15.6561C11.8773 15.2487 12.1467 14.8576 12.554 14.7825C13.6582 14.5789 14.5688 13.6682 14.7724 12.5641C14.8476 12.1567 15.2387 11.8874 15.646 11.9625Z"/>
            <path fill-rule="evenodd" clip-rule="evenodd" d="M10.0003 13.9997C10.2932 14.2926 10.2932 14.7675 10.0003 15.0604L2.53033 22.5304C2.23744 22.8233 1.76256 22.8233 1.46967 22.5304C1.17678 22.2375 1.17678 21.7626 1.46967 21.4697L8.93967 13.9997C9.23256 13.7068 9.70744 13.7068 10.0003 13.9997Z"/>
            <path fill-rule="evenodd" clip-rule="evenodd" d="M22.5304 1.46967C22.8233 1.76256 22.8233 2.23744 22.5304 2.53033L15.0604 10.0003C14.7675 10.2932 14.2926 10.2932 13.9997 10.0003C13.7068 9.70744 13.7068 9.23256 13.9997 8.93967L21.4697 1.46967C21.7626 1.17678 22.2375 1.17678 22.5304 1.46967Z"/>
        </symbol>
        <symbol id="eye" viewBox="0 0 24 24">
            <path fill-rule="evenodd" clip-rule="evenodd" d="M12 9.16992C10.4343 9.16992 9.17004 10.4341 9.17004 11.9999C9.17004 13.5657 10.4343 14.8299 12 14.8299C13.5658 14.8299 14.83 13.5657 14.83 11.9999C14.83 10.4341 13.5658 9.16992 12 9.16992ZM7.67004 11.9999C7.67004 9.60571 9.60583 7.66992 12 7.66992C14.3943 7.66992 16.33 9.60571 16.33 11.9999C16.33 14.3941 14.3943 16.3299 12 16.3299C9.60583 16.3299 7.67004 14.3941 7.67004 11.9999Z"/>
            <path fill-rule="evenodd" clip-rule="evenodd" d="M2.25752 8.99693C4.64844 5.23857 8.15205 2.96997 12 2.96997C15.8482 2.96997 19.3519 5.23877 21.7428 8.99743C22.2878 9.85177 22.535 10.9461 22.535 11.995C22.535 13.0438 22.2878 14.1382 21.7428 14.9925C19.3519 18.7512 15.8482 21.02 12 21.02C8.15188 21.02 4.64813 18.7512 2.25721 14.9925C1.71223 14.1382 1.46503 13.0438 1.46503 11.995C1.46503 10.9459 1.71233 9.85135 2.25752 8.99693ZM12 4.46997C8.78817 4.46997 5.71192 6.36117 3.52285 9.80251L3.52222 9.8035C3.16763 10.359 2.96503 11.1542 2.96503 11.995C2.96503 12.8357 3.16763 13.6309 3.52222 14.1864L3.52285 14.1874C5.71192 17.6288 8.78817 19.52 12 19.52C15.2119 19.52 18.2881 17.6288 20.4772 14.1874L20.4778 14.1864C20.8324 13.6309 21.035 12.8357 21.035 11.995C21.035 11.1542 20.8324 10.359 20.4778 9.8035L20.4772 9.80251C18.2881 6.36117 15.2119 4.46997 12 4.46997Z"/>
        </symbol>
    </defs>
</svg>
