<svg width="367" height="57" viewBox="0 0 367 57" fill="none" xmlns="http://www.w3.org/2000/svg">
    <path d="M1.128 55V50.968C3.048 50.968 4.392 50.52 5.16 49.624C5.928 48.728 6.376 47.48 6.504 45.88C6.696 44.28 6.792 42.424 6.792 40.312V20.344C6.792 19.32 6.792 18.232 6.792 17.08C6.856 15.864 6.984 14.68 7.176 13.528C6.088 13.592 4.936 13.656 3.72 13.72C2.504 13.72 1.384 13.752 0.36 13.816V8.728C3.24 8.728 5.48 8.6 7.08 8.344C8.744 8.024 9.992 7.672 10.824 7.288C11.72 6.904 12.392 6.488 12.84 6.04H16.296C16.424 6.68 16.488 7.448 16.488 8.344C16.552 9.176 16.616 10.072 16.68 11.032C18.664 9.368 20.904 8.024 23.4 7C25.96 5.976 28.424 5.464 30.792 5.464C33.928 5.464 36.52 6.04 38.568 7.192C40.68 8.28 42.344 9.848 43.56 11.896C45.8 10.04 48.328 8.504 51.144 7.288C53.96 6.072 56.712 5.464 59.4 5.464C64.84 5.464 68.872 7.096 71.496 10.36C74.12 13.56 75.4 18.936 75.336 26.488L75.24 43.096C75.24 44.248 75.208 45.432 75.144 46.648C75.144 47.8 75.048 48.984 74.856 50.2C75.88 50.136 76.936 50.104 78.024 50.104C79.112 50.04 80.104 49.976 81 49.912V55H59.88V50.968C61.672 50.968 62.92 50.52 63.624 49.624C64.392 48.728 64.84 47.48 64.968 45.88C65.16 44.28 65.256 42.424 65.256 40.312V26.488C65.192 21.432 64.36 17.72 62.76 15.352C61.16 12.984 58.728 11.8 55.464 11.8C53.608 11.8 51.784 12.216 49.992 13.048C48.2 13.816 46.6 14.808 45.192 16.024C45.512 17.112 45.736 18.328 45.864 19.672C46.056 20.952 46.152 22.296 46.152 23.704C46.088 26.904 46.056 30.136 46.056 33.4C46.056 36.6 46.056 39.832 46.056 43.096C46.056 44.248 46.024 45.432 45.96 46.648C45.896 47.8 45.8 48.984 45.672 50.2C46.696 50.136 47.72 50.104 48.744 50.104C49.832 50.04 50.824 49.976 51.72 49.912V55H30.408V50.968C32.328 50.968 33.64 50.52 34.344 49.624C35.112 48.728 35.56 47.48 35.688 45.88C35.88 44.28 35.976 42.424 35.976 40.312V26.392C36.04 21.336 35.304 17.624 33.768 15.256C32.296 12.824 29.928 11.64 26.664 11.704C24.808 11.704 23.016 12.12 21.288 12.952C19.56 13.72 18.056 14.712 16.776 15.928C16.776 16.696 16.776 17.496 16.776 18.328C16.84 19.16 16.872 20.056 16.872 21.016V43.096C16.872 44.248 16.84 45.432 16.776 46.648C16.712 47.8 16.616 48.984 16.488 50.2C17.512 50.136 18.536 50.104 19.56 50.104C20.584 50.04 21.544 49.976 22.44 49.912V55H1.128Z" fill="#131723"/>
    <path d="M98.5312 49.9375C98.5312 47.6875 97.5312 46.0312 95.5312 44.9688C94.7188 44.5312 93.875 44.3125 93 44.3125C90.6875 44.3125 89.0312 45.375 88.0312 47.5C87.6562 48.3125 87.4688 49.125 87.4688 49.9375C87.4688 52.3125 88.5312 54 90.6562 55C91.4062 55.3125 92.1875 55.4688 93 55.4688C95.25 55.4688 96.9062 54.4375 97.9688 52.375C98.3438 51.5625 98.5312 50.75 98.5312 49.9375ZM167.66 39.256V55H137.324V39.256H141.356V23.512C141.356 21.4 140.908 19.864 140.012 18.904C139.116 17.88 137.772 17.368 135.98 17.368C132.14 17.368 130.22 19.416 130.22 23.512V39.256H134.252V55H103.916V39.256H108.14V17.368H103.916V1.62399H130.22V9.112C134.828 3.224 140.588 0.279995 147.5 0.279995C152.812 0.279995 156.78 1.944 159.404 5.272C162.092 8.6 163.436 13.176 163.436 19V39.256H167.66ZM199.367 56.344C190.279 56.344 183.175 53.976 178.055 49.24C172.935 44.44 170.375 37.464 170.375 28.312C170.375 19.16 172.935 12.216 178.055 7.48C183.175 2.68 190.279 0.279995 199.367 0.279995C208.391 0.279995 214.887 2.648 218.855 7.384C222.887 12.056 224.903 17.88 224.903 24.856V31.768H193.799V32.344C193.799 34.712 194.503 36.472 195.911 37.624C197.319 38.712 199.655 39.256 202.919 39.256C206.823 39.256 210.535 38.968 214.055 38.392C217.575 37.816 220.647 37.08 223.271 36.184V51.544C221.031 52.76 217.735 53.88 213.383 54.904C209.095 55.864 204.423 56.344 199.367 56.344ZM204.935 21.208V20.056C204.935 17.88 204.455 16.312 203.495 15.352C202.599 14.392 201.223 13.912 199.367 13.912C197.511 13.912 196.103 14.424 195.143 15.448C194.247 16.408 193.799 17.944 193.799 20.056V21.208H204.935ZM243.695 55L231.023 17.368H226.991V1.62399H256.655V17.368H252.623L256.079 32.344H257.039L264.047 1.62399H281.711L288.719 32.344H289.679L293.039 17.368H289.007V1.62399H316.847V17.368H312.815L300.623 55H277.295L272.015 28.312H271.055L265.775 55H243.695ZM342.869 56.344C334.805 56.344 327.029 55.064 319.541 52.504V38.296H335.093V39.256C335.093 42.328 337.045 43.864 340.949 43.864C344.405 43.864 346.133 42.68 346.133 40.312C346.133 39.032 345.621 38.072 344.597 37.432C343.637 36.792 341.909 36.248 339.413 35.8L334.613 34.936C324.565 33.144 319.541 27.448 319.541 17.848C319.541 12.28 321.653 7.96 325.877 4.888C330.101 1.816 335.797 0.279995 342.965 0.279995C350.965 0.279995 357.717 1.624 363.221 4.312V17.656H348.629V16.696C348.629 15.416 348.181 14.456 347.285 13.816C346.453 13.112 345.205 12.76 343.541 12.76C340.341 12.76 338.741 13.784 338.741 15.832C338.741 16.92 339.189 17.752 340.085 18.328C340.981 18.904 342.613 19.448 344.981 19.96L350.453 21.016C356.149 22.104 360.213 24.12 362.645 27.064C365.076 30.008 366.292 33.784 366.292 38.392C366.292 44.216 364.245 48.664 360.149 51.736C356.117 54.808 350.357 56.344 342.869 56.344Z" fill="white"/>
</svg>
